<?xml version="1.0" encoding="UTF-8"?>
<svg xmlns="http://www.w3.org/2000/svg" viewBox="0 0 720 360" role="img" aria-labelledby="title desc"><title id="title">/ts/ 辅音发音口型图</title><desc id="desc">/ts/ 的正面口型与侧面舌位示意图</desc><defs><marker id="arrow" markerWidth="9" markerHeight="9" refX="7" refY="4.5" orient="auto"><path d="M0 0 L9 4.5 L0 9Z" fill="#6d28d9"/></marker><marker id="arrow-blue" markerWidth="9" markerHeight="9" refX="7" refY="4.5" orient="auto"><path d="M0 0 L9 4.5 L0 9Z" fill="#2563eb"/></marker><linearGradient id="bg" x1="0" x2="1"><stop offset="0" stop-color="#ffffff"/><stop offset="1" stop-color="#f7f4ff"/></linearGradient><style>.section-label{font:700 15px "Segoe UI","Microsoft YaHei",sans-serif;fill:#4c1d95;letter-spacing:.08em}.small{font:600 12px "Segoe UI","Microsoft YaHei",sans-serif;fill:#667085}.tiny{font:600 10px "Segoe UI","Microsoft YaHei",sans-serif;fill:#6d28d9}.lip-line{fill:none;stroke:#b64b68;stroke-width:6;stroke-linecap:round}.contact{fill:none;stroke:#6d28d9;stroke-width:4;stroke-linecap:round;stroke-dasharray:4 4}.motion{fill:none;stroke:#6d28d9;stroke-width:3;stroke-linecap:round;stroke-linejoin:round;marker-end:url(#arrow)}.nasal{fill:none;stroke:#2563eb;stroke-width:4;stroke-linecap:round;stroke-dasharray:7 5;marker-end:url(#arrow-blue)}.cluster{fill:none;stroke:#2563eb;stroke-width:3;stroke-linecap:round;stroke-dasharray:5 4;marker-end:url(#arrow-blue)}</style></defs><rect x="2" y="2" width="716" height="356" rx="28" fill="url(#bg)" stroke="#e5dff1" stroke-width="2"/><line x1="282" y1="62" x2="282" y2="330" stroke="#ebe6f3" stroke-width="2"/><circle cx="655" cy="55" r="38" fill="#ede9fe" stroke="#c4b5fd" stroke-width="2"/><text x="655" y="64" text-anchor="middle" font-family="Doulos SIL,Charis SIL,Segoe UI,sans-serif" font-size="31" font-weight="700" fill="#4c1d95">/ts/</text><g><text x="35" y="47" class="section-label">正面口型</text><ellipse cx="160" cy="193" rx="73" ry="91" fill="#fff" stroke="#d9d2e8" stroke-width="3"/><ellipse cx="160" cy="193" rx="61" ry="39" fill="#3b3050"/><path d="M102 176 Q160 185 218 176" stroke="#fff" stroke-width="7" stroke-linecap="round"/><path d="M116 219 Q160 201 204 219 Q160 238 116 219Z" fill="#ee846f" opacity=".92"/><text x="160" y="304" text-anchor="middle" class="small">舌部抬起，正面开口自然</text><text x="160" y="328" text-anchor="middle" class="small">清音 · 声带不振动</text></g><g><text x="306" y="47" class="section-label">侧面舌位</text><path d="M265 56 C342 37 449 66 470 139 L486 183 C490 202 476 213 460 207 L447 202 C453 232 438 267 405 286 C351 315 286 288 267 242 C253 210 252 151 265 56Z" fill="#fff" stroke="#bfb6d2" stroke-width="3"/><path d="M294 107 Q431 88 461 136" fill="none" stroke="#b8abc9" stroke-width="3" stroke-dasharray="5 5"/><path d="M276 164 Q319 145 352 153" fill="none" stroke="#d89aa9" stroke-width="5" stroke-linecap="round"/><path d="M276 195.5 Q317 213.5 354 199.5" fill="none" stroke="#d89aa9" stroke-width="5" stroke-linecap="round"/><path d="M346 139 Q405 121 456 139" fill="none" stroke="#6f5d91" stroke-width="4" stroke-linecap="round"/><path d="M424 137 Q434 115 448 113" fill="none" stroke="#6f5d91" stroke-width="4" stroke-linecap="round"/><path d="M286 218 Q304 190 300 171 Q333 147 325 152 Q350 175 386 214 Q430 195 458 216 L458 240 L286 240Z" fill="#ee846f" opacity=".94"/><circle cx="325" cy="137" r="5" fill="#2563eb"/><path d="M325 124 Q325 95 325 124" class="cluster"/><path d="M320 176 Q325 151 444 174" class="motion"/><text x="341" y="168" class="tiny">气流通过</text><circle cx="282" cy="224" r="7" fill="#fff" stroke="#6d28d9" stroke-width="3"/><text x="420" y="278" class="small">清音 · alveolar</text></g><text x="34" y="344" class="tiny">口型与舌位仅作发音位置参考</text></svg>